PathFileType	4	(X/Y/Z)	walk-thru1-3-TP.trc
DataRate	CameraRate	NumFrames	NumMarkers	Units	OrigDataRate	OrigDataStartFrame	OrigNumFrames
120.00	120.00	       4	60	mm	120.00	75	       597
Frame#	Time	Top.Head			Front.Head			Rear.Head			Jaw			C7			R.Clavicle			L.Clavicle			R.Shoulder			L.Shoulder			R.Scapula			L.Scapula			R.Scap.Inf			R.Biceps.Lateral			R.Elbow			R.Elbow.Medial			R.Forearm			R.Ulna			R.Radius			R.Wrist			R.Thumb.M1			R.Thumb.M2			R.Thumb.M3			R.Finger3.M1			R.Finger3.M2			R.Finger3.M3			L.Biceps.Lateral			L.Elbow			L.Elbow.Medial			L.Forearm			L.Ulna			L.Radius			L.Wrist			L.Thumb.M1			L.Thumb.M2			L.Thumb.M3			L.Finger3.M1			L.Finger3.M2			L.Finger3.M3			V.Sacral			R.ASIS			L.ASIS			R.Thigh			R.Thigh.Front			R.Knee			R.Knee.Medial			R.Shank			R.Ankle			R.Ankle.Medial			R.Heel			R.Toe			R.MedFoot			L.Thigh			L.Knee			L.Knee.Medial			L.Shank			L.Ankle			L.Ankle.Medial			L.Heel			L.Toe			L.MedFoot			V_mid_ASIS			V_R_Knee_JC			V_L_Knee_JC			V_R_Elbow_JC			V_L_Elbow_JC			V_R_Ankle_JC			V_L_Ankle_JC			V_R_Wrist_JC			V_L_Wrist_JC			V_R_ScaTrpz_1stMC_JC			V_R_1stMC_1stPP_JC			V_R_1stPP_1stDP_JC			V_R_LunCap_3rdMC_JC			V_R_3rdMC_3rdPP_JC			V_R_3rdPP_3rdMP_JC			V_R_3rdMP_3rdDP_JC			V_L_ScaTrpz_1stMC_JC			V_L_1stMC_1stPP_JC			V_L_1stPP_1stDP_JC			V_L_LunCap_3rdMC_JC			V_L_3rdMC_3rdPP_JC			V_L_3rdPP_3rdMP_JC			V_L_3rdMP_3rdPP_JC			V_ROOT_JC			V_R_Hip_JC			V_L_Hip_JC			V_R_GlenHum_JC			V_L_GlenHum_JC			V_ForeHead_Ctr			V_Vertex			V_Sagit_Lambdoid_Suture			V_R_FrontoTemp			V_L_FrontoTemporal			V_R_ParietalOccip			V_L_ParietalOcciptal			V_R_Temporal			V_L_Temporal			V_mid_FrontRearHead			V_mid_RLGlenHumCtrs			V_C7_vert			V_C1_vert			V_Mid_Hip			
		X1	Y1	Z1	X2	Y2	Z2	X3	Y3	Z3	X4	Y4	Z4	X5	Y5	Z5	X6	Y6	Z6	X7	Y7	Z7	X8	Y8	Z8	X9	Y9	Z9	X10	Y10	Z10	X11	Y11	Z11	X12	Y12	Z12	X13	Y13	Z13	X14	Y14	Z14	X15	Y15	Z15	X16	Y16	Z16	X17	Y17	Z17	X18	Y18	Z18	X19	Y19	Z19	X20	Y20	Z20	X21	Y21	Z21	X22	Y22	Z22	X23	Y23	Z23	X24	Y24	Z24	X25	Y25	Z25	X26	Y26	Z26	X27	Y27	Z27	X28	Y28	Z28	X29	Y29	Z29	X30	Y30	Z30	X31	Y31	Z31	X32	Y32	Z32	X33	Y33	Z33	X34	Y34	Z34	X35	Y35	Z35	X36	Y36	Z36	X37	Y37	Z37	X38	Y38	Z38	X39	Y39	Z39	X40	Y40	Z40	X41	Y41	Z41	X42	Y42	Z42	X43	Y43	Z43	X44	Y44	Z44	X45	Y45	Z45	X46	Y46	Z46	X47	Y47	Z47	X48	Y48	Z48	X49	Y49	Z49	X50	Y50	Z50	X51	Y51	Z51	X52	Y52	Z52	X53	Y53	Z53	X54	Y54	Z54	X55	Y55	Z55	X56	Y56	Z56	X57	Y57	Z57	X58	Y58	Z58	X59	Y59	Z59	X60	Y60	Z60	

75	0.617	1354.04883	-9.97933	1778.72034	1249.63782	-5.68235	1661.72961	1484.65088	-10.00200	1702.25110	1335.72632	-13.27770	1484.05542	1573.45508	2.78082	1579.15405	1465.84021	113.26661	1498.38013	1479.02991	-132.45549	1489.82690	1506.43738	221.07869	1489.23413	1535.88025	-232.25616	1489.12805	1630.16455	103.42390	1488.25781	1649.23059	-88.45663	1485.63037	1659.34521	107.78810	1397.91431	1536.09863	261.26498	1351.30969	1589.32397	303.13553	1168.35242	1596.44360	204.48062	1154.41382	1492.27234	292.70209	1109.94629	1539.06189	305.59857	969.20300	1425.56750	287.98169	949.27924	1417.96106	331.73523	918.26013	1403.34888	276.06693	911.79547	1393.77502	244.33232	870.17737	1389.21887	235.67229	820.48047	1393.75049	331.72025	836.02600	1424.32019	279.10233	783.79657	1456.13147	234.34477	816.15631	1608.08130	-253.59421	1348.44873	1688.38757	-251.34573	1186.50305	1693.85059	-155.46490	1165.92188	1616.60059	-258.85156	1093.94116	1694.95349	-271.23654	999.00098	1602.63354	-257.50165	929.31146	1637.22754	-297.55341	898.60864	1591.53259	-256.25891	868.92163	1574.75525	-232.99060	822.01550	1574.74573	-231.86873	773.13135	1628.20557	-306.35071	796.14941	1633.55615	-271.03177	739.25214	1636.62561	-212.84306	743.41162	1690.91138	6.07182	1126.26453	1484.57910	182.11053	1062.18494	1510.84253	-169.48006	1075.58105	1496.70203	164.78180	682.76636	1437.63745	65.58154	584.53455	1475.23047	129.83597	524.76422	1502.59924	24.11576	523.84076	1486.78882	87.43571	307.58731	1590.44604	131.08572	84.70374	1587.09839	28.11008	105.28366	1658.50439	92.07260	48.50837	1423.68311	77.92616	39.52408	1490.79602	44.72166	78.19526	1467.86060	-178.43744	690.39313	1443.39722	-171.38211	539.46436	1446.33020	-57.75100	519.43835	1548.33203	-121.49381	352.32870	1774.11401	-132.55341	213.47935	1712.78711	-44.78042	208.12233	1820.65918	-59.55206	210.35927	1658.05884	-121.15192	75.26145	1672.17712	-84.93528	143.60213																																																																																																																															
76	0.625	1349.86829	-10.48961	1779.68799	1245.27124	-4.54838	1662.03186	1480.38208	-10.43535	1702.99158	1331.19373	-13.44749	1484.17114	1568.61108	1.45336	1579.73059	1461.17664	112.14642	1499.28149	1473.23059	-133.16687	1489.60571	1501.35425	221.57990	1489.45007	1532.42114	-232.32155	1489.17395	1624.41040	103.20925	1488.81152	1644.11218	-87.09803	1486.05811	1654.02026	108.58884	1398.79578	1530.76392	261.65677	1350.99646	1584.19629	302.16595	1168.24048	1590.20398	204.33740	1155.47168	1485.33423	291.34216	1109.29944	1533.35498	304.44226	969.05505	1418.89636	287.62350	949.61877	1411.69238	332.92789	919.45691	1396.09631	279.46423	911.48505	1384.19751	246.58534	872.67188	1376.58313	237.19675	821.69275	1385.24597	334.26276	837.74695	1412.33569	279.40585	785.70587	1445.28748	234.11310	816.39215	1603.11194	-251.24770	1349.28577	1684.06531	-251.07031	1186.61145	1689.02649	-155.39903	1167.07568	1611.89990	-256.32449	1093.68909	1690.92212	-269.32803	999.42706	1600.19958	-257.29523	929.21002	1632.21216	-296.83954	899.32886	1586.38330	-256.99213	870.35791	1571.57849	-233.02589	824.04144	1570.43103	-232.53639	773.31042	1624.89148	-304.70016	795.71118	1630.65247	-268.80258	739.51447	1632.72290	-210.60460	743.29297	1685.92212	6.62989	1126.61841	1480.27222	181.82916	1062.40918	1507.47644	-169.22681	1076.35962	1494.54529	164.76750	682.64404	1436.14111	66.10455	584.00647	1473.16833	131.10686	524.64789	1502.01086	23.92128	523.80505	1485.62646	87.16772	307.14014	1590.41589	131.32506	84.84459	1586.79578	27.94586	105.31998	1658.44019	92.39495	48.78723	1423.96997	77.95187	40.04556	1490.79602	44.72166	78.19526	1459.70837	-179.58380	691.69275	1435.87512	-169.32747	541.19293	1436.98010	-56.87051	520.56342	1536.50110	-123.00324	352.16483	1759.56873	-133.12019	209.54253	1698.86646	-45.09338	205.11227	1805.20105	-59.71724	203.54152	1640.78223	-123.46582	75.30318	1655.99048	-86.70941	141.88576																																																																																																																															
77	0.633	1344.93384	-11.20565	1781.02954	1240.51392	-6.27051	1661.91443	1475.26355	-10.69937	1703.54102	1327.53613	-13.81090	1484.85889	1563.94434	2.78508	1580.14307	1455.91907	112.46710	1499.52051	1468.94922	-132.77882	1489.97522	1496.07385	221.65053	1489.52722	1529.49988	-232.76311	1489.52429	1620.21814	104.36704	1489.67102	1639.65320	-87.12417	1487.05591	1649.21033	109.42316	1399.40527	1526.02856	261.08224	1351.68567	1578.66858	301.97128	1167.81555	1584.64526	203.66803	1154.85815	1479.62463	293.29474	1110.24829	1528.32202	302.92139	969.23431	1411.17676	287.44342	950.99420	1405.79749	332.69983	921.36432	1387.78088	281.58432	913.00897	1373.15039	248.08591	873.69391	1363.19409	243.90787	823.04431	1376.95447	336.23441	840.00818	1399.71570	279.51611	787.05243	1433.60547	235.02104	815.08240	1600.44629	-251.60033	1349.54541	1680.98047	-249.56902	1187.24658	1685.41919	-154.33180	1167.96912	1609.18054	-253.23370	1093.83716	1687.57263	-268.42041	1000.17084	1596.10632	-256.41934	929.95782	1630.04175	-296.47287	899.33801	1584.47412	-256.18112	871.55328	1564.52759	-232.68408	826.00061	1566.98975	-232.22177	773.66614	1621.50061	-305.44760	797.38000	1626.50354	-267.90091	740.00787	1628.35205	-210.66771	743.11414	1681.95264	6.17654	1126.82751	1476.37646	182.53093	1062.78027	1502.04333	-169.63635	1077.22656	1492.79199	164.30293	682.96582	1433.63672	65.15655	583.82941	1473.03528	131.07680	524.61780	1500.57397	23.86289	523.65228	1485.96790	87.21345	307.19452	1590.13391	130.68980	85.04939	1586.79578	27.94586	105.31998	1658.73999	92.64397	49.02398	1423.96997	77.95187	40.04556	1490.87219	44.35074	78.25240	1453.18335	-179.14473	693.86340	1426.75623	-170.39348	542.52374	1427.46448	-57.35312	522.88733	1524.55603	-123.57961	351.82703	1744.52063	-134.81987	204.88362	1684.15356	-45.16099	201.48729	1790.73792	-60.53148	196.89458	1621.25525	-126.16750	74.45950	1640.04968	-86.47076	140.36478																																																																																																																															
78	0.642	1340.76355	-12.06303	1781.18542	1237.07825	-6.52718	1661.65503	1471.53931	-11.17272	1703.72766	1322.58008	-14.84887	1485.07678	1559.59900	2.70604	1580.76636	1451.26501	111.38934	1499.39600	1465.63940	-132.02995	1490.16296	1491.16992	220.86070	1490.48730	1526.15234	-232.90845	1489.70813	1616.33325	104.54173	1489.41785	1635.85620	-87.15211	1486.53662	1643.82166	110.28749	1398.94250	1520.88037	260.66946	1351.10901	1573.57263	302.10892	1168.14148	1579.85095	203.18285	1155.58154	1475.25195	293.34763	1110.42236	1522.67590	301.76392	968.82831	1405.30054	288.00882	952.04712	1399.80652	332.52545	921.92554	1380.91101	282.55643	914.29108	1364.09497	251.94147	873.87189	1351.53381	243.64867	823.36877	1367.99292	337.54703	843.12384	1391.10852	282.84161	787.62299	1421.27734	235.85381	815.46838	1594.88440	-248.39589	1350.01721	1677.53467	-248.82835	1188.36572	1681.24329	-153.41672	1168.19263	1606.72217	-253.17856	1093.63831	1683.16821	-268.06564	1000.28979	1593.22632	-256.15567	931.14880	1626.19397	-295.38150	900.18518	1580.70557	-255.53120	872.79419	1566.23413	-228.53067	826.14282	1559.22498	-232.56882	774.20245	1617.06262	-302.56442	797.93207	1622.87891	-267.85736	740.26990	1625.14526	-208.49057	744.67499	1676.33630	6.39560	1127.20691	1472.00513	180.48683	1063.17627	1497.87708	-169.64961	1077.46155	1490.58911	164.71164	682.86951	1432.64001	65.49712	583.00726	1472.47095	131.02548	524.38232	1499.85986	24.30232	523.98895	1485.10303	86.48448	306.68591	1590.13391	130.68980	85.04939	1586.79578	27.94586	105.31998	1658.52563	93.19395	49.41413	1423.68311	77.92616	39.52408	1490.90344	44.28992	78.21555	1445.71851	-180.31453	694.29602	1417.72266	-171.07220	543.63898	1420.07129	-57.34019	523.91083	1512.18567	-123.95409	351.34799	1729.43359	-133.78091	198.94965	1669.80884	-45.81395	197.69676	1775.59558	-61.05969	190.19571	1600.68311	-128.40547	74.70464	1623.23657	-88.04233	139.29990																																																																																																																															
